<?xml version="1.0" encoding="utf-8"?>
<!-- Generator: Adobe Illustrator 21.0.0, SVG Export Plug-In . SVG Version: 6.00 Build 0)  -->
<svg version="1.1" id="图层_1" xmlns="http://www.w3.org/2000/svg" xmlns:xlink="http://www.w3.org/1999/xlink" x="0px" y="0px"
	 viewBox="0 0 64 64" style="enable-background:new 0 0 64 64;" xml:space="preserve">
<style type="text/css">
	.st0{fill:#0082FF;}
	.st1{fill:#F7C035;}
</style>
<g id="Page-1">
	<path id="Combined-Shape" class="st0" d="M30.7,24.1L25.9,22L15.4,32l10,10.1l5.3-2.3V24.1z M32.7,25v13.9l15.9-7L32.7,25z
		 M52,31.9c0,0.2,0,0.3-0.1,0.5l-11,24C40.7,56.8,40.4,57,40,57h-0.3c0,0,0,0,0,0H18c-0.4,0-0.7-0.2-0.9-0.6l-4-8
		c-0.3-0.5,0-1.1,0.5-1.4l9.8-4.1L13.3,32.7c-0.4-0.4-0.4-1,0-1.4l10.5-10.1l-10.2-4.2c-0.5-0.2-0.8-0.9-0.5-1.4l4-8
		C17.3,7.2,17.6,7,18,7h22c0.4,0,0.7,0.2,0.9,0.6l10.8,23.5C51.9,31.3,52,31.6,52,31.9z M24.3,44.8l-5,2.2h10.5l14.1-10.9l-18.1,8
		c-0.1,0.1-0.1,0.1-0.2,0.1L24.3,44.8z M19.4,17l24.4,10.6L29.8,17H19.4z M37,55l-7.2-6H15.6l3,6H37z M39.6,54.6l9-19.5L31.7,48
		L39.6,54.6z M37.3,9H18.6l-3,6h14.2L37.3,9z M39.7,9.7L31.8,16l16.6,12.5L39.7,9.7z"/>
	<polygon id="Path-567" class="st1" points="28.9,25 28.9,25.5 28.9,39.4 20,32.2 	"/>
</g>
</svg>
