<?xml version="1.0" encoding="utf-8"?>
<!-- Generator: Adobe Illustrator 21.0.0, SVG Export Plug-In . SVG Version: 6.00 Build 0)  -->
<svg version="1.1" id="图层_1" xmlns="http://www.w3.org/2000/svg" xmlns:xlink="http://www.w3.org/1999/xlink" x="0px" y="0px"
	 viewBox="0 0 64 64" style="enable-background:new 0 0 64 64;" xml:space="preserve">
<style type="text/css">
	.st0{fill:#0082FF;}
	.st1{fill:#F7C035;}
</style>
<g id="Page-1">
	<path id="Combined-Shape" class="st0" d="M32,56.5c5.1,0,10.3-2.6,15.7-7.9L32,8.7L16.3,48.5C21.7,53.9,26.9,56.5,32,56.5z
		 M33.9,7.9L50,49c-6,6.3-12,9.5-18,9.5S20,55.3,14,49L30.1,7.9c0.4-1,1.6-1.5,2.6-1.1C33.2,7,33.7,7.4,33.9,7.9z M22.4,47
		c3.6,3,6.8,4.4,9.6,4.4s6.1-1.4,9.6-4.4L32,20.4L22.4,47z M32,14.6l12,33.1c-4.3,3.9-8.3,5.8-12,5.8s-7.7-1.9-12-5.8L32,14.6z"/>
	<path id="Path-625" class="st1" d="M26.6,40.5l1.5-4.5c1.5-0.7,2.9-1,4.3-1c1.4,0,2.8,0.3,4.1,1l1.6,4.5c-1.9-0.8-3.8-1.2-5.7-1.2
		C30.4,39.4,28.5,39.8,26.6,40.5z"/>
</g>
</svg>
