<?xml version="1.0" encoding="utf-8"?>
<!-- Generator: Adobe Illustrator 21.0.0, SVG Export Plug-In . SVG Version: 6.00 Build 0)  -->
<svg version="1.1" id="图层_1" xmlns="http://www.w3.org/2000/svg" xmlns:xlink="http://www.w3.org/1999/xlink" x="0px" y="0px"
	 viewBox="0 0 64 64" style="enable-background:new 0 0 64 64;" xml:space="preserve">
<style type="text/css">
	.st0{fill:#0082FF;}
	.st1{fill:#F7C035;}
</style>
<g id="Page-1">
	<path id="Combined-Shape" class="st0" d="M53.6,21.5c-2.2-4.6-5.9-8.3-10.4-10.7C43.1,11,43,11.3,43,11.6c-0.2,1.1-0.8,1.9-2,2.6
		c-0.2,2.2-2.7,4.1-7.5,6c-8.2,3.3-12.2,12.1-5.9,17.8c3.2,2.9,6.4,3.1,9.6,1.1c2.4-1.4,4.6-4,5.8-6.3c1.1-2.1,2.4-3.6,3.8-4.6
		c0.8-4.2,1.8-6,3.8-6.5C51.9,21.4,52.8,21.3,53.6,21.5z M41,9.7C38.2,8.6,35.2,8,32,8C18.7,8,8,18.7,8,32s10.7,24,24,24
		s24-10.7,24-24c0-2.8-0.5-5.5-1.3-7.9c-1-0.7-2.1-0.8-3.4-0.4c-1.5,0.4-2.3,3.5-3.3,11.3c0,0.2-0.2,1.3-0.2,1.6
		c-0.1,0.6-0.1,1.2-0.2,1.7c-0.9,7.4-8.6,14.1-16,14.8c-9.3,0.8-17.8-4.5-19.6-15.8c-1-6.1,1.1-11.4,5.3-15.5
		c3.3-3.3,7.9-5.6,11.5-6.3c8.2-1.5,11.9-2.7,12.2-4.2C41.1,10.6,41.3,10.2,41,9.7z M46.4,31.4c-0.5,0.7-1,1.4-1.5,2.3
		c-1.4,2.5-3.8,5.4-6.5,7c-3.9,2.4-8.1,2.2-12-1.3c-7.7-6.9-3-17.4,6.5-21.1c2.6-1.1,4.4-2.1,5.4-3c-2.1,0.7-5.1,1.3-9,2
		c-3.3,0.6-7.5,2.8-10.5,5.8c-3.8,3.7-5.6,8.4-4.7,13.8c1.6,10.2,9.1,14.9,17.4,14.1c6.5-0.6,13.4-6.6,14.2-13.1
		c0.1-0.5,0.1-1,0.2-1.7c0-0.3,0.2-1.5,0.2-1.6C46.1,33.5,46.3,32.4,46.4,31.4z M32,58C17.6,58,6,46.4,6,32S17.6,6,32,6
		s26,11.6,26,26S46.4,58,32,58z"/>
	<path id="Combined-Shape_1_" class="st1" d="M34,36c-2.8,0-5-2.2-5-5s2.2-5,5-5s5,2.2,5,5S36.8,36,34,36z M20.2,27.5
		c-1.2,5.7,0,10.2,3.8,13.5s8.6,4.3,14.5,3c-5.3,4.9-10.8,5.2-16.4,1S15.9,34.9,20.2,27.5z"/>
</g>
</svg>
