<?xml version="1.0" encoding="utf-8"?>
<!-- Generator: Adobe Illustrator 21.0.0, SVG Export Plug-In . SVG Version: 6.00 Build 0)  -->
<svg version="1.1" id="图层_1" xmlns="http://www.w3.org/2000/svg" xmlns:xlink="http://www.w3.org/1999/xlink" x="0px" y="0px"
	 viewBox="0 0 64 64" style="enable-background:new 0 0 64 64;" xml:space="preserve">
<style type="text/css">
	.st0{fill:#0082FF;}
	.st1{fill:#F7C035;}
</style>
<g id="Page-1">
	<path id="Path-492" class="st0" d="M17,26.4v19.2c0,0.6-0.4,1-1,1H9.4c-0.6,0-1-0.5-1-1L9,10c0-0.5,0.5-1,1-1h6
		c0.4,0,0.7,0.2,0.9,0.5l15.5,26.1L48.1,9.5C48.3,9.2,48.6,9,49,9h6c0.6,0,1,0.4,1,1v35.6c0,0.6-0.4,1-1,1h-6.6c-0.6,0-1-0.4-1-1
		V26.5L36.9,43.2l6.5,10.7c0.4,0.7-0.1,1.5-0.9,1.5h-6.9c-0.4,0-0.7-0.2-0.9-0.5l-2.5-4.2l-2.5,4.2c-0.2,0.3-0.5,0.5-0.9,0.5h-6.8
		c-0.8,0-1.3-0.9-0.9-1.5l6.5-10.7L17,26.4z M15,44.6V23c0-1,1.3-1.4,1.8-0.5l13,20.2c0.2,0.3,0.2,0.7,0,1.1l-5.9,9.7h4.5l3.1-5.1
		c0.4-0.6,1.3-0.6,1.7,0l3,5.1h4.5l-5.9-9.7c-0.2-0.3-0.2-0.7,0-1.1l12.7-20.1c0.5-0.8,1.8-0.5,1.8,0.5v21.5H54V11h-4.4L33.2,38
		c-0.4,0.6-1.3,0.6-1.7,0L15.4,11H11l-0.6,33.6H15z"/>
	<polygon id="Path-621" class="st1" points="26.4,15.7 39.1,15.7 32.7,27 	"/>
</g>
</svg>
