<?xml version="1.0" encoding="utf-8"?>
<!-- Generator: Adobe Illustrator 21.0.0, SVG Export Plug-In . SVG Version: 6.00 Build 0)  -->
<svg version="1.1" id="图层_1" xmlns="http://www.w3.org/2000/svg" xmlns:xlink="http://www.w3.org/1999/xlink" x="0px" y="0px"
	 viewBox="0 0 64 64" style="enable-background:new 0 0 64 64;" xml:space="preserve">
<style type="text/css">
	.st0{fill:none;}
	.st1{fill:#0082FF;}
	.st2{fill:#F7C035;}
</style>
<g id="Page-1">
	<polygon id="Rectangle" class="st0" points="10,24 32,11 54,24 54,53 44.7,53 41,40.8 31.5,52.9 23,40.8 19.3,53 10,53 	"/>
	<path id="Combined-Shape" class="st1" d="M18.6,28.9l9.8-14.6L11.3,24.4l7,9.3v-4C18.3,29.4,18.4,29.1,18.6,28.9z M21.2,28.7h4.4
		l3.5-11.8L21.2,28.7z M44.6,28.7c0.3,0.2,0.6,0.5,0.6,0.9l0.1,4.2l7.4-9.5L34.9,13.9L44.6,28.7z M42.2,28.7L35,17.8l3.4,10.9H42.2z
		 M31.9,10C31.9,10,31.9,10,31.9,10c0.3,0,0.5,0,0.6,0.1l22,13c0.3,0.2,0.5,0.5,0.5,0.9v0.3c0,0,0,0,0,0V53c0,0.6-0.4,1-1,1h-9
		c0,0,0,0,0,0h-0.3c-0.5,0-1-0.4-1-1l0-0.9l-2.9-9.3l-8.4,10.8c-0.4,0.5-1.2,0.5-1.6,0l-7.6-10.1l-2.9,9.7c-0.1,0.4-0.5,0.7-1,0.7
		c0,0,0,0,0,0H10c-0.6,0-1-0.4-1-1V24.4c0,0,0,0,0,0V24c0-0.4,0.2-0.7,0.5-0.9L31,10.4C31.2,10.1,31.5,10,31.9,10z M18.3,37L11,27.3
		V52h7.3V37z M45.4,37l0.3,14.8l0.1,0.2H53V27.2L45.4,37z M20.3,39.7v6.7l1.4-4.8L20.3,39.7z M20.3,36.3l2.1,2.8l2.5-8.5h-4.7V36.3z
		 M40.1,40.5L37,30.7h-9.9l-3.1,10.5l7.7,10.2L40.1,40.5z M43.4,39.5l-1.1,1.4l1.2,4L43.4,39.5z M43.4,36.3l-0.1-5.7h-4.2l2.5,8
		L43.4,36.3z M27.7,28.7h8.7l-4.4-14.2L27.7,28.7z"/>
	<polyline id="Path-567" class="st2" points="23,33.7 23.6,33.7 41.4,33.7 32.2,44.6 	"/>
</g>
</svg>
