<?xml version="1.0" encoding="utf-8"?>
<!-- Generator: Adobe Illustrator 21.0.0, SVG Export Plug-In . SVG Version: 6.00 Build 0)  -->
<svg version="1.1" id="图层_1" xmlns="http://www.w3.org/2000/svg" xmlns:xlink="http://www.w3.org/1999/xlink" x="0px" y="0px"
	 viewBox="0 0 64 64" style="enable-background:new 0 0 64 64;" xml:space="preserve">
<style type="text/css">
	.st0{fill:#0082FF;}
	.st1{fill:#F7C035;}
</style>
<g id="Page-1">
	<path id="Combined-Shape" class="st0" d="M32,54c11,0,20-9,20-20s-9-20-20-20s-20,9-20,20S21,54,32,54z M32,56
		c-12.2,0-22-9.8-22-22s9.8-22,22-22s22,9.8,22,22S44.2,56,32,56z M55,51c-2.2,0-4,1.8-4,4s1.8,4,4,4s4-1.8,4-4S57.2,51,55,51z
		 M55,49c3.3,0,6,2.7,6,6s-2.7,6-6,6s-6-2.7-6-6S51.7,49,55,49z M17,6c-1.7,0-3,1.3-3,3s1.3,3,3,3s3-1.3,3-3S18.7,6,17,6z M17,4
		c2.8,0,5,2.2,5,5s-2.2,5-5,5s-5-2.2-5-5S14.2,4,17,4z M8,53c-1.1,0-2,0.9-2,2s0.9,2,2,2s2-0.9,2-2S9.1,53,8,53z M8,51
		c2.2,0,4,1.8,4,4s-1.8,4-4,4s-4-1.8-4-4S5.8,51,8,51z"/>
	<polygon id="Path-47" class="st1" points="36.7,37.7 21,32.7 21,26.7 32.8,20 44,26.7 44,32.2 39,30.7 39,29.5 32.6,26 28,28.6 
		44,33.5 44,40.4 32.5,47 21,39.8 21,34.6 26.2,36.1 26.2,37.7 32.8,40.7 	"/>
</g>
</svg>
