<?xml version="1.0" encoding="utf-8"?>
<!-- Generator: Adobe Illustrator 21.0.0, SVG Export Plug-In . SVG Version: 6.00 Build 0)  -->
<svg version="1.1" id="图层_1" xmlns="http://www.w3.org/2000/svg" xmlns:xlink="http://www.w3.org/1999/xlink" x="0px" y="0px"
	 viewBox="0 0 64 64" style="enable-background:new 0 0 64 64;" xml:space="preserve">
<style type="text/css">
	.st0{fill:#0082FF;}
	.st1{fill:#F7C035;}
</style>
<g id="Page-1">
	<path id="Path-23" class="st0" d="M32.3,35.5c-0.6,0.8-1.4,1.8-2.2,2.7c1.1,0.1,2.1,0.2,3.2,0.4c9.5,1.7,16.9,7,22,15.8
		c0.3,0.5,0.1,1.1-0.4,1.4s-1.1,0.1-1.4-0.4C48.8,47.1,41.9,42.1,33,40.6c-1.5-0.3-3-0.4-4.5-0.4c-1.9,2.2-4,4.4-6,6.3
		c-5.2,4.9-9,7-11.4,5c-2.6-2.2-0.4-6.3,4.2-9.3c3.5-2.3,7.8-3.7,12.3-3.9c1.1-1.3,2.2-2.6,3.2-3.9c1.8-2.4,3.9-4.8,6-6.7
		c-0.2-0.1-0.5-0.2-0.7-0.4c-7.9-4.2-14.7-2.2-20.8,6.4c-0.3,0.5-0.9,0.6-1.4,0.2c-0.5-0.3-0.6-0.9-0.2-1.4
		c6.7-9.4,14.6-11.8,23.4-7c0.5,0.3,0.9,0.5,1.4,0.7c3.5-2.9,7-4.5,9.2-3.4c2.5,1.3,3.1,4.5,1,6.3c-1.9,1.6-5.3,1.5-9.8-0.5
		C36.5,30.5,34.2,33,32.3,35.5z M16.4,43.8c-3.7,2.4-5.1,5.1-4,6.1c1.7,1.5,7.7-3.4,13.2-9.5C22.2,40.9,19,42.1,16.4,43.8z
		 M47.2,27.5c0.9-0.8,0.6-2.3-0.6-2.9c-1.2-0.6-3.5,0.5-6.1,2.6C43.8,28.4,46.1,28.4,47.2,27.5z"/>
	<path id="Combined-Shape" class="st1" d="M31.4,13.7c4.1-5.3,11.2,3.1,7.7,5.8S27.3,19,31.4,13.7z M29.9,43c2,0,4.4,0.6,7,1.7
		c8.3,3.5,10,6.1,10,6.1c-9-2.9-16.3-3.7-22-2.4L29.9,43z M20.3,31c3.6-3.5,8.1-4.5,13.6-3c0,0-0.9,0.9-2.8,2.7
		c-1.5-0.3-2.9-0.4-4.2-0.4C25.5,30.3,23.3,30.6,20.3,31z"/>
</g>
</svg>
